<?xml version="1.0" encoding="UTF-8" standalone="no"?>
<!DOCTYPE svg PUBLIC "-//W3C//DTD SVG 1.1//EN" "http://www.w3.org/Graphics/SVG/1.1/DTD/svg11.dtd">
<svg width="100%" height="100%" viewBox="0 0 256 256" version="1.1" xmlns="http://www.w3.org/2000/svg" xmlns:xlink="http://www.w3.org/1999/xlink" xml:space="preserve" xmlns:serif="http://www.serif.com/" style="fill-rule:evenodd;clip-rule:evenodd;stroke-linejoin:round;stroke-miterlimit:2;">
    <g transform="matrix(0.933394,0,0,0.933394,-111.763,-19.9339)">
        <circle cx="256.872" cy="158.49" r="137.134" style="fill:rgb(0,131,78);"/>
    </g>
    <g transform="matrix(6.46774e-17,1.05626,-0.878244,5.37769e-17,219.484,-43.8743)">
        <path d="M157.984,41.216C156.659,48.264 169.006,58.655 162.719,65.24C156.502,71.752 143.663,57.315 143.823,44.063C144.078,22.859 156.911,15.037 168.44,15.398C184.536,15.902 199.506,32.56 199.478,56.557C199.455,75.708 188.767,85.49 180.018,85.536C179.858,85.201 211.43,110.029 236.362,86.07C256.116,67.086 270.455,80.196 264.669,102.927C259.166,124.544 241.101,130.411 230.021,127.183C209.457,121.193 193.653,109.436 183.744,102.927C176.008,97.845 157.709,94.975 154.577,95.07C128.872,95.847 98.865,110.085 98.865,151.985C98.865,184.053 122.013,211.164 146.17,211.122C168.753,211.082 192.218,196.125 192.941,160.837C193.492,133.989 172.623,128.257 164.585,127.964C144.697,127.24 134.256,142.742 134.501,153.151C134.971,173.042 143.056,178.37 148.601,178.383C152.554,178.393 161.174,174.912 161.443,164.545C161.687,155.102 159.105,154.219 158.65,149.364C157.55,137.629 165.584,142.6 165.584,142.6C169.288,143.304 173.742,152.682 173.816,160.686C173.939,173.888 168.315,193.367 145.283,192.586C125.453,191.914 118.069,172.248 117.904,155.196C117.779,142.298 127.923,108.033 162.901,108.315C164.241,108.326 212.091,113.637 212.022,159.073C211.938,214.801 177.364,234.343 141.477,230.742C104.543,227.035 78.026,190.535 78.026,153.532C78.026,116.529 95.137,82.426 141.299,83.775C141.652,83.785 103.602,62.097 103.602,31.42C103.602,8.313 124.287,-23.13 154.822,-21.736C178.77,-20.643 202.601,0.545 209.964,6.683C213.769,9.856 217.795,15.554 213.39,22.328C209.118,28.896 203.503,24.605 200.836,22.437C187.943,11.96 180.433,1.575 157.323,0.405C135.952,-0.677 123.748,14.77 122.723,32.568C121.44,54.825 138.31,75.248 157.062,77.485C168.472,78.846 179.102,72.542 181.84,61.053C184.968,47.931 181.118,31.475 170.12,29.545C163.069,28.308 159.404,33.66 157.984,41.216Z" style="fill:white;fill-rule:nonzero;"/>
    </g>
</svg>
